<?xml version="1.0" standalone="no"?>
<!DOCTYPE svg PUBLIC "-//W3C//DTD SVG 20010904//EN"
 "http://www.w3.org/TR/2001/REC-SVG-20010904/DTD/svg10.dtd">
<svg version="1.0" xmlns="http://www.w3.org/2000/svg"
 width="1024.000000pt" height="1024.000000pt" viewBox="0 0 1024.000000 1024.000000"
 preserveAspectRatio="xMidYMid meet">

<g transform="translate(0.000000,1024.000000) scale(0.100000,-0.100000)"
fill="#000000" stroke="none">
<path d="M0 5120 l0 -5120 5120 0 5120 0 0 5120 0 5120 -5120 0 -5120 0 0
-5120z m5425 2496 c195 -51 374 -162 485 -302 34 -42 60 -80 58 -85 -3 -9 -90
-72 -268 -193 -156 -106 -304 -154 -505 -163 -212 -9 -389 33 -550 131 -105
64 -305 215 -305 231 0 23 84 128 158 197 105 99 252 165 452 203 120 23 350
14 475 -19z m1014 -437 c221 -37 381 -214 400 -443 l6 -78 55 -17 c166 -52
268 -160 301 -321 7 -31 9 -103 7 -170 -4 -99 -10 -127 -38 -200 -52 -138 -43
-239 27 -288 16 -10 51 -29 78 -42 60 -29 154 -120 184 -178 49 -96 65 -263
36 -375 -48 -186 -198 -315 -390 -336 -59 -6 -59 -6 -67 -44 -20 -94 -94 -189
-179 -226 -51 -23 -189 -40 -189 -24 0 5 9 18 19 27 33 30 106 148 134 216 36
88 57 171 64 256 l6 70 48 -10 c34 -7 69 -7 114 1 79 14 219 80 223 107 4 17
-1 18 -40 12 -129 -19 -329 53 -421 154 -55 61 -108 165 -126 249 -6 30 -16
146 -21 256 -13 275 -32 369 -106 521 -52 109 -140 229 -226 310 -141 129
-348 236 -528 270 l-44 9 92 74 c194 154 300 202 506 230 5 0 39 -4 75 -10z
m-2307 -36 c80 -32 273 -154 348 -221 l43 -38 -85 -23 c-105 -27 -250 -92
-346 -154 -131 -85 -278 -253 -351 -402 -79 -159 -88 -208 -111 -585 -15 -251
-49 -349 -160 -460 -99 -100 -221 -150 -367 -150 -96 0 -104 -10 -44 -52 83
-59 200 -83 309 -64 l42 8 0 -45 c0 -49 31 -181 57 -242 28 -67 92 -173 139
-231 l44 -54 -58 0 c-154 0 -277 88 -327 233 l-20 61 -75 12 c-51 9 -104 28
-168 60 -105 53 -144 92 -189 190 -25 54 -28 71 -31 196 -3 103 0 150 12 191
30 103 110 184 263 267 121 65 138 125 82 292 -118 354 -9 634 279 719 39 11
42 14 42 48 0 56 38 201 65 247 61 105 152 179 263 215 91 30 243 22 344 -18z
m748 -410 c32 -8 123 -17 217 -20 164 -6 252 2 371 33 48 13 66 13 146 -1 125
-21 263 -59 351 -96 203 -84 371 -250 456 -449 53 -126 67 -203 79 -433 6
-116 15 -237 21 -267 28 -150 83 -260 181 -366 l29 -31 -11 -107 c-13 -127
-38 -214 -93 -321 -54 -104 -188 -241 -297 -302 -265 -149 -910 -241 -1420
-203 -426 32 -742 102 -930 207 -99 55 -235 185 -289 276 -65 111 -110 272
-111 400 0 56 2 61 48 115 60 70 84 111 116 200 37 103 46 166 56 397 11 235
27 321 85 442 106 224 274 379 501 462 75 27 253 74 319 84 40 6 108 -1 175
-20z m-1820 -2623 c5 0 14 27 21 60 6 33 16 63 21 66 4 3 50 -17 101 -44 50
-27 138 -69 195 -92 94 -39 121 -55 110 -65 -2 -2 -57 12 -123 31 -66 19 -143
37 -171 40 l-51 6 -27 -47 c-20 -33 -32 -45 -43 -40 -57 21 -295 79 -361 87
-22 3 -21 5 19 58 23 30 53 79 67 108 l26 52 104 -110 c57 -60 108 -110 112
-110z m4409 153 c21 -38 53 -86 69 -109 l29 -40 -101 -17 c-55 -10 -143 -29
-195 -44 l-95 -26 -15 24 c-9 13 -27 36 -41 51 l-25 27 -130 -40 c-71 -21
-143 -42 -160 -45 -27 -6 -28 -5 -15 8 16 16 80 46 285 132 l130 55 6 -55 c4
-30 8 -57 10 -59 7 -6 71 55 139 133 34 39 64 72 66 72 2 0 21 -30 43 -67z
m-3514 -63 c4 -6 -13 -34 -38 -63 -24 -29 -53 -70 -65 -93 -11 -22 -28 -46
-37 -54 -8 -7 -50 -73 -91 -147 -41 -73 -79 -133 -83 -133 -4 0 -16 7 -27 15
-19 14 -18 16 15 77 42 78 124 201 164 248 82 95 143 160 149 160 4 0 10 -5
13 -10z m2487 -72 c41 -46 99 -119 130 -163 64 -92 142 -224 137 -229 -10 -9
-51 -27 -53 -24 -2 2 -36 59 -75 128 -40 69 -85 139 -101 155 -15 17 -31 40
-35 53 -4 13 -28 52 -55 87 -44 58 -50 75 -29 75 4 0 40 -37 81 -82z m-2179
-126 c-18 -5 -27 3 -18 17 4 7 10 7 20 -2 11 -10 11 -13 -2 -15z m2757 -203
c35 -24 123 -100 195 -169 71 -69 150 -141 174 -160 l44 -36 -93 -68 c-50 -37
-94 -66 -96 -63 -4 4 31 130 40 145 8 14 -138 175 -287 317 -75 71 -137 134
-137 138 0 5 21 -7 48 -26 26 -19 76 -54 112 -78z m-3566 89 c-10 -16 -171
-170 -271 -259 -72 -65 -211 -155 -248 -161 -15 -2 -31 14 -67 67 -26 39 -47
73 -47 76 -1 4 28 12 64 18 164 29 317 97 505 224 75 52 73 51 64 35z m848
-32 c56 -14 148 -30 202 -38 l99 -13 20 -50 c12 -27 44 -95 72 -150 45 -89 50
-105 44 -140 -17 -97 -29 -313 -29 -517 l0 -221 -172 6 c-233 9 -506 35 -570
53 -14 4 -18 16 -18 52 0 50 26 288 36 326 l6 23 251 5 c224 4 257 6 292 24
72 35 72 120 0 150 -27 11 -86 14 -265 14 -216 0 -231 1 -226 18 2 9 16 67 31
127 29 124 105 355 116 355 4 0 54 -11 111 -24z m1821 7 c3 -10 22 -65 42
-123 36 -104 76 -250 89 -322 l7 -37 -245 -3 c-243 -3 -245 -3 -270 -27 -50
-47 -27 -124 44 -146 14 -5 137 -11 274 -14 l250 -6 12 -73 c19 -111 36 -315
27 -322 -18 -16 -337 -46 -595 -56 l-171 -7 7 104 c8 109 -8 502 -24 604 l-10
60 58 115 c31 63 65 135 75 160 17 44 18 45 65 47 26 2 115 16 197 32 83 16
153 30 156 30 4 1 9 -7 12 -16z m-2505 -291 c31 -22 98 -63 147 -92 50 -30 91
-54 92 -55 2 -1 -8 -53 -21 -116 -14 -63 -28 -131 -31 -153 l-6 -39 -57 7
c-164 19 -256 133 -238 297 8 78 36 189 48 189 5 0 35 -17 66 -38z m3168 -14
c22 -71 29 -202 14 -257 -8 -30 -27 -59 -63 -95 -57 -57 -104 -76 -184 -76
l-49 0 -28 128 c-16 70 -30 136 -33 147 -4 17 5 25 47 45 29 14 100 55 159 92
58 37 109 67 113 67 4 1 15 -23 24 -51z"/>
<path d="M4350 5983 c-60 -10 -153 -49 -197 -82 -84 -64 -111 -145 -63 -196
32 -34 65 -32 169 9 51 20 115 37 156 41 110 11 147 39 147 111 0 42 -23 79
-60 98 -30 15 -114 26 -152 19z"/>
<path d="M5850 5979 c-114 -22 -150 -159 -55 -207 11 -5 47 -13 80 -16 75 -9
156 -31 204 -57 70 -37 136 -17 155 48 19 62 -87 177 -203 218 -53 18 -130 25
-181 14z"/>
<path d="M5860 5579 c-19 -6 -42 -17 -50 -25 -12 -12 -11 -14 8 -14 66 0 98
-109 47 -164 -46 -50 -135 -29 -154 37 l-8 32 -13 -30 c-6 -17 -10 -57 -8 -91
7 -115 87 -195 203 -202 78 -5 120 8 175 55 98 84 108 221 24 330 -46 61 -149
94 -224 72z"/>
<path d="M4305 5566 l-30 -13 37 -16 c51 -22 74 -67 59 -119 -27 -89 -145 -88
-179 2 l-10 25 -11 -28 c-18 -45 -13 -108 13 -162 40 -86 119 -138 211 -138
69 1 128 27 174 80 95 108 69 274 -56 353 -40 26 -56 30 -112 30 -37 -1 -79
-7 -96 -14z"/>
<path d="M4893 5182 c-65 -23 -125 -64 -159 -109 -26 -34 -29 -35 -74 -29 -55
7 -68 -3 -77 -58 -4 -27 1 -49 21 -90 84 -171 332 -244 501 -147 l49 28 45
-28 c106 -65 274 -56 382 19 75 52 128 132 136 203 4 46 2 57 -16 73 -19 17
-25 18 -60 6 l-39 -13 -55 55 c-74 75 -132 102 -229 106 -64 3 -85 0 -122 -18
-43 -20 -46 -21 -78 -4 -50 26 -161 29 -225 6z m175 -107 c20 -9 46 -25 58
-36 l22 -20 46 32 c86 61 167 43 279 -62 34 -32 71 -60 82 -61 17 -3 13 -8
-22 -31 -119 -81 -267 -73 -339 17 -16 20 -35 36 -43 36 -8 0 -35 -20 -61 -44
-56 -53 -111 -71 -187 -61 -79 10 -219 85 -158 85 9 0 44 26 79 59 105 97 165
118 244 86z"/>
</g>
</svg>
